<mxfile host="app.diagrams.net" modified="2023-02-02T21:12:07.054Z" agent="5.0 (Windows NT 10.0; Win64; x64) AppleWebKit/537.36 (KHTML, like Gecko) Chrome/109.0.0.0 Safari/537.36" etag="QJ5-8YLTygd-h0Rz_WFi" version="20.8.16" type="github">
  <diagram name="Page-1" id="eWxkoKbZQuhLReymi95l">
    <mxGraphModel dx="1050" dy="549" grid="1" gridSize="10" guides="1" tooltips="1" connect="1" arrows="1" fold="1" page="1" pageScale="1" pageWidth="850" pageHeight="1100" math="0" shadow="0">
      <root>
        <mxCell id="0" />
        <mxCell id="1" parent="0" />
        <mxCell id="NhZAsAYxJO-BzEIUP5iS-1" value="PATIENT" style="rounded=1;whiteSpace=wrap;html=1;" vertex="1" parent="1">
          <mxGeometry x="130" y="60" width="120" height="60" as="geometry" />
        </mxCell>
        <mxCell id="NhZAsAYxJO-BzEIUP5iS-2" value="RECEPTIONIST" style="rounded=1;whiteSpace=wrap;html=1;" vertex="1" parent="1">
          <mxGeometry x="510" y="60" width="120" height="60" as="geometry" />
        </mxCell>
        <mxCell id="NhZAsAYxJO-BzEIUP5iS-3" value="NURSE" style="rounded=1;whiteSpace=wrap;html=1;" vertex="1" parent="1">
          <mxGeometry x="510" y="320" width="120" height="60" as="geometry" />
        </mxCell>
        <mxCell id="NhZAsAYxJO-BzEIUP5iS-5" value="DOCTOR/SURGEON" style="rounded=1;whiteSpace=wrap;html=1;" vertex="1" parent="1">
          <mxGeometry x="130" y="320" width="120" height="60" as="geometry" />
        </mxCell>
        <mxCell id="NhZAsAYxJO-BzEIUP5iS-6" value="" style="endArrow=none;html=1;rounded=0;exitX=1;exitY=0.5;exitDx=0;exitDy=0;entryX=0;entryY=0.5;entryDx=0;entryDy=0;" edge="1" parent="1" source="NhZAsAYxJO-BzEIUP5iS-1" target="NhZAsAYxJO-BzEIUP5iS-2">
          <mxGeometry width="50" height="50" relative="1" as="geometry">
            <mxPoint x="400" y="200" as="sourcePoint" />
            <mxPoint x="450" y="150" as="targetPoint" />
          </mxGeometry>
        </mxCell>
        <mxCell id="NhZAsAYxJO-BzEIUP5iS-7" value="" style="endArrow=none;html=1;rounded=0;exitX=0.5;exitY=1;exitDx=0;exitDy=0;entryX=0.5;entryY=0;entryDx=0;entryDy=0;" edge="1" parent="1" source="NhZAsAYxJO-BzEIUP5iS-1" target="NhZAsAYxJO-BzEIUP5iS-5">
          <mxGeometry width="50" height="50" relative="1" as="geometry">
            <mxPoint x="180" y="120" as="sourcePoint" />
            <mxPoint x="440" y="120" as="targetPoint" />
          </mxGeometry>
        </mxCell>
        <mxCell id="NhZAsAYxJO-BzEIUP5iS-8" value="" style="endArrow=none;html=1;rounded=0;exitX=1;exitY=0.5;exitDx=0;exitDy=0;" edge="1" parent="1" source="NhZAsAYxJO-BzEIUP5iS-5" target="NhZAsAYxJO-BzEIUP5iS-3">
          <mxGeometry width="50" height="50" relative="1" as="geometry">
            <mxPoint x="400" y="200" as="sourcePoint" />
            <mxPoint x="450" y="150" as="targetPoint" />
          </mxGeometry>
        </mxCell>
        <mxCell id="NhZAsAYxJO-BzEIUP5iS-10" value="" style="endArrow=classic;html=1;rounded=0;" edge="1" parent="1">
          <mxGeometry width="50" height="50" relative="1" as="geometry">
            <mxPoint x="330" y="70" as="sourcePoint" />
            <mxPoint x="400" y="70" as="targetPoint" />
          </mxGeometry>
        </mxCell>
        <mxCell id="NhZAsAYxJO-BzEIUP5iS-11" value="&lt;font style=&quot;font-size: 8px;&quot;&gt;1.ASK FOR APPOINTMENT FOR A CHECKUP OR A ROUTINE CHEK&lt;br&gt;10.PAY REQUIRED FEE&amp;nbsp;&lt;br&gt;&lt;/font&gt;" style="text;html=1;strokeColor=none;fillColor=none;align=center;verticalAlign=middle;whiteSpace=wrap;rounded=0;" vertex="1" parent="1">
          <mxGeometry x="300" y="30" width="130" height="30" as="geometry" />
        </mxCell>
        <mxCell id="NhZAsAYxJO-BzEIUP5iS-14" value="" style="endArrow=none;html=1;rounded=0;fontSize=8;exitX=1;exitY=0;exitDx=0;exitDy=0;entryX=0;entryY=1;entryDx=0;entryDy=0;" edge="1" parent="1" source="NhZAsAYxJO-BzEIUP5iS-5" target="NhZAsAYxJO-BzEIUP5iS-2">
          <mxGeometry width="50" height="50" relative="1" as="geometry">
            <mxPoint x="400" y="160" as="sourcePoint" />
            <mxPoint x="450" y="110" as="targetPoint" />
          </mxGeometry>
        </mxCell>
        <mxCell id="NhZAsAYxJO-BzEIUP5iS-15" value="" style="endArrow=classic;html=1;rounded=0;fontSize=8;" edge="1" parent="1">
          <mxGeometry width="50" height="50" relative="1" as="geometry">
            <mxPoint x="380" y="200" as="sourcePoint" />
            <mxPoint x="320" y="250" as="targetPoint" />
          </mxGeometry>
        </mxCell>
        <mxCell id="NhZAsAYxJO-BzEIUP5iS-16" value="2.CHECK FOR DOCTOR AVAILABILITY THROUGH SCHEDULE" style="text;html=1;strokeColor=none;fillColor=none;align=center;verticalAlign=middle;whiteSpace=wrap;rounded=0;fontSize=8;rotation=-40;" vertex="1" parent="1">
          <mxGeometry x="270" y="200" width="110" height="30" as="geometry" />
        </mxCell>
        <mxCell id="NhZAsAYxJO-BzEIUP5iS-17" value="" style="endArrow=classic;html=1;rounded=0;fontSize=8;" edge="1" parent="1">
          <mxGeometry width="50" height="50" relative="1" as="geometry">
            <mxPoint x="340" y="270" as="sourcePoint" />
            <mxPoint x="400" y="230" as="targetPoint" />
          </mxGeometry>
        </mxCell>
        <mxCell id="NhZAsAYxJO-BzEIUP5iS-18" value="3.CONFIRM FOR APPOINTMENT OR RESCHEDULE" style="text;html=1;strokeColor=none;fillColor=none;align=center;verticalAlign=middle;whiteSpace=wrap;rounded=0;fontSize=8;rotation=-30;" vertex="1" parent="1">
          <mxGeometry x="350" y="250" width="80" height="30" as="geometry" />
        </mxCell>
        <mxCell id="NhZAsAYxJO-BzEIUP5iS-19" value="" style="endArrow=classic;html=1;rounded=0;fontSize=8;" edge="1" parent="1">
          <mxGeometry width="50" height="50" relative="1" as="geometry">
            <mxPoint x="440" y="360" as="sourcePoint" />
            <mxPoint x="350" y="360" as="targetPoint" />
          </mxGeometry>
        </mxCell>
        <mxCell id="NhZAsAYxJO-BzEIUP5iS-20" value="6.ASSIST&amp;nbsp; DOCTOR AND GIVE MEDICAL TEST RESULTS" style="text;html=1;strokeColor=none;fillColor=none;align=center;verticalAlign=middle;whiteSpace=wrap;rounded=0;fontSize=8;" vertex="1" parent="1">
          <mxGeometry x="350" y="370" width="100" height="30" as="geometry" />
        </mxCell>
        <mxCell id="NhZAsAYxJO-BzEIUP5iS-21" value="" style="endArrow=classic;html=1;rounded=0;fontSize=8;" edge="1" parent="1">
          <mxGeometry width="50" height="50" relative="1" as="geometry">
            <mxPoint x="180" y="260" as="sourcePoint" />
            <mxPoint x="180" y="200" as="targetPoint" />
          </mxGeometry>
        </mxCell>
        <mxCell id="NhZAsAYxJO-BzEIUP5iS-22" value="7.TREATS PATIENT&amp;nbsp; BY PERFORMING A SURGERY AND/OR PRESCRIBES DRUGS" style="text;html=1;strokeColor=none;fillColor=none;align=center;verticalAlign=middle;whiteSpace=wrap;rounded=0;fontSize=8;rotation=-90;" vertex="1" parent="1">
          <mxGeometry x="100" y="210" width="100" height="30" as="geometry" />
        </mxCell>
        <mxCell id="NhZAsAYxJO-BzEIUP5iS-23" value="5.CONSULTS DOCTOR BASED ON TEXT RESULTS&lt;br&gt;8. GIVES OK TO DISCHARGE PATIENT" style="text;html=1;strokeColor=none;fillColor=none;align=center;verticalAlign=middle;whiteSpace=wrap;rounded=0;fontSize=8;rotation=-90;" vertex="1" parent="1">
          <mxGeometry x="180" y="210" width="100" height="30" as="geometry" />
        </mxCell>
        <mxCell id="NhZAsAYxJO-BzEIUP5iS-24" value="" style="endArrow=classic;html=1;rounded=0;fontSize=8;" edge="1" parent="1">
          <mxGeometry width="50" height="50" relative="1" as="geometry">
            <mxPoint x="200" y="200" as="sourcePoint" />
            <mxPoint x="200" y="270" as="targetPoint" />
          </mxGeometry>
        </mxCell>
        <mxCell id="NhZAsAYxJO-BzEIUP5iS-26" value="" style="endArrow=classic;html=1;rounded=0;fontSize=8;" edge="1" parent="1">
          <mxGeometry width="50" height="50" relative="1" as="geometry">
            <mxPoint x="405" y="100" as="sourcePoint" />
            <mxPoint x="325" y="100" as="targetPoint" />
          </mxGeometry>
        </mxCell>
        <mxCell id="NhZAsAYxJO-BzEIUP5iS-27" value="4.CONFIRMS WITH PATIENT&amp;nbsp;&lt;br&gt;9.APPLIES ASSERTED FEE" style="text;html=1;strokeColor=none;fillColor=none;align=center;verticalAlign=middle;whiteSpace=wrap;rounded=0;fontSize=8;" vertex="1" parent="1">
          <mxGeometry x="315" y="110" width="110" height="30" as="geometry" />
        </mxCell>
        <mxCell id="NhZAsAYxJO-BzEIUP5iS-28" value="HEAD OF DEPARTMENT" style="rounded=1;whiteSpace=wrap;html=1;fontSize=8;" vertex="1" parent="1">
          <mxGeometry x="130" y="540" width="120" height="60" as="geometry" />
        </mxCell>
        <mxCell id="NhZAsAYxJO-BzEIUP5iS-29" value="" style="endArrow=none;html=1;rounded=0;fontSize=8;exitX=0.5;exitY=0;exitDx=0;exitDy=0;" edge="1" parent="1" source="NhZAsAYxJO-BzEIUP5iS-28">
          <mxGeometry width="50" height="50" relative="1" as="geometry">
            <mxPoint x="140" y="430" as="sourcePoint" />
            <mxPoint x="190" y="380" as="targetPoint" />
          </mxGeometry>
        </mxCell>
        <mxCell id="NhZAsAYxJO-BzEIUP5iS-30" value="" style="endArrow=classic;html=1;rounded=0;fontSize=8;" edge="1" parent="1">
          <mxGeometry width="50" height="50" relative="1" as="geometry">
            <mxPoint x="200" y="490" as="sourcePoint" />
            <mxPoint x="200" y="430" as="targetPoint" />
          </mxGeometry>
        </mxCell>
        <mxCell id="NhZAsAYxJO-BzEIUP5iS-31" value="ASSIGN CASES BASED ON AVAILABILITY" style="text;html=1;strokeColor=none;fillColor=none;align=center;verticalAlign=middle;whiteSpace=wrap;rounded=0;fontSize=8;rotation=-90;" vertex="1" parent="1">
          <mxGeometry x="190" y="450" width="80" height="30" as="geometry" />
        </mxCell>
        <mxCell id="NhZAsAYxJO-BzEIUP5iS-34" value="" style="endArrow=classic;html=1;rounded=0;fontSize=8;" edge="1" parent="1">
          <mxGeometry width="50" height="50" relative="1" as="geometry">
            <mxPoint x="180" y="430" as="sourcePoint" />
            <mxPoint x="180" y="490" as="targetPoint" />
          </mxGeometry>
        </mxCell>
        <mxCell id="NhZAsAYxJO-BzEIUP5iS-35" value="GIVE DETAILED REPORT OF MEDICAL CASE" style="text;html=1;strokeColor=none;fillColor=none;align=center;verticalAlign=middle;whiteSpace=wrap;rounded=0;fontSize=8;rotation=-90;" vertex="1" parent="1">
          <mxGeometry x="110" y="440" width="80" height="40" as="geometry" />
        </mxCell>
        <mxCell id="NhZAsAYxJO-BzEIUP5iS-36" value="Text" style="text;html=1;strokeColor=none;fillColor=none;align=center;verticalAlign=middle;whiteSpace=wrap;rounded=0;fontSize=8;" vertex="1" parent="1">
          <mxGeometry x="660" y="190" width="60" height="30" as="geometry" />
        </mxCell>
        <mxCell id="NhZAsAYxJO-BzEIUP5iS-40" value="" style="endArrow=none;html=1;rounded=0;fontSize=8;entryX=1;entryY=1;entryDx=0;entryDy=0;" edge="1" parent="1" target="NhZAsAYxJO-BzEIUP5iS-1">
          <mxGeometry width="50" height="50" relative="1" as="geometry">
            <mxPoint x="510" y="320" as="sourcePoint" />
            <mxPoint x="560" y="270" as="targetPoint" />
          </mxGeometry>
        </mxCell>
        <mxCell id="NhZAsAYxJO-BzEIUP5iS-41" value="" style="endArrow=classic;html=1;rounded=0;fontSize=8;" edge="1" parent="1">
          <mxGeometry width="50" height="50" relative="1" as="geometry">
            <mxPoint x="500" y="290" as="sourcePoint" />
            <mxPoint x="450" y="250" as="targetPoint" />
          </mxGeometry>
        </mxCell>
        <mxCell id="NhZAsAYxJO-BzEIUP5iS-43" value="TALK TO PATIENT&amp;nbsp;" style="text;html=1;strokeColor=none;fillColor=none;align=center;verticalAlign=middle;whiteSpace=wrap;rounded=0;fontSize=8;rotation=45;" vertex="1" parent="1">
          <mxGeometry x="460" y="240" width="60" height="30" as="geometry" />
        </mxCell>
        <mxCell id="NhZAsAYxJO-BzEIUP5iS-44" value="" style="endArrow=classic;html=1;rounded=0;fontSize=8;" edge="1" parent="1">
          <mxGeometry width="50" height="50" relative="1" as="geometry">
            <mxPoint x="440" y="280" as="sourcePoint" />
            <mxPoint x="480" y="310" as="targetPoint" />
          </mxGeometry>
        </mxCell>
        <mxCell id="NhZAsAYxJO-BzEIUP5iS-46" value="" style="edgeStyle=none;rounded=0;orthogonalLoop=1;jettySize=auto;html=1;fontSize=8;" edge="1" parent="1" target="NhZAsAYxJO-BzEIUP5iS-18">
          <mxGeometry relative="1" as="geometry">
            <mxPoint x="430.25126265847075" y="297.3223304703363" as="sourcePoint" />
            <Array as="points">
              <mxPoint x="420" y="290" />
            </Array>
          </mxGeometry>
        </mxCell>
        <mxCell id="NhZAsAYxJO-BzEIUP5iS-48" value="ASKS ADDITIONAL QUESTIONS THROUGHOUT THE SYSTEM" style="text;html=1;strokeColor=none;fillColor=none;align=center;verticalAlign=middle;whiteSpace=wrap;rounded=0;fontSize=8;" vertex="1" parent="1">
          <mxGeometry x="400" y="310" width="110" height="30" as="geometry" />
        </mxCell>
      </root>
    </mxGraphModel>
  </diagram>
</mxfile>
